<svg width="1964" height="500" viewBox="0 0 1964 500" fill="none" xmlns="http://www.w3.org/2000/svg">
<g clip-path="url(#clip0_6122_148747)">
<path d="M405.227 492.109V296.848C405.227 217.186 451.702 153.742 544.663 153.742C559.585 153.523 574.474 155.179 588.984 158.672V238.999C578.421 238.297 569.286 238.297 565.051 238.297C515.806 238.297 494.631 260.85 494.631 306.67V492.109H405.227Z" fill="#6D4AFF"/>
<path d="M615.748 326.499C615.748 228.511 689.689 153.791 792.512 153.791C895.335 153.791 969.251 228.462 969.251 326.499C969.251 424.536 895.31 499.861 792.5 499.861C689.689 499.861 615.748 424.438 615.748 326.499ZM881.239 326.499C881.239 270.807 843.911 231.334 792.512 231.334C741.113 231.334 703.773 270.77 703.773 326.499C703.773 382.894 741.1 421.665 792.512 421.665C843.923 421.665 881.226 382.844 881.226 326.499H881.239Z" fill="#6D4AFF"/>
<path d="M1228.39 231.987H1131.92V355.35C1131.92 398.348 1147.41 418.091 1191.78 418.091C1196 418.091 1206.55 418.091 1219.94 417.389V490.001C1201.64 494.931 1185.47 497.753 1167.83 497.753C1093.19 497.753 1042.48 452.635 1042.48 367.341V231.987H982.621V160.791H997.542C1003.45 160.791 1009.29 159.626 1014.75 157.362C1020.2 155.099 1025.16 151.781 1029.33 147.599C1033.51 143.417 1036.82 138.452 1039.07 132.989C1041.33 127.525 1042.48 121.671 1042.48 115.76V48.7048H1131.92V160.791H1228.39V231.987Z" fill="#6D4AFF"/>
<path d="M1255.14 326.499C1255.14 228.511 1329.08 153.791 1431.91 153.791C1534.73 153.791 1608.66 228.462 1608.66 326.499C1608.66 424.536 1534.72 499.91 1431.91 499.91C1329.09 499.91 1255.14 424.438 1255.14 326.499ZM1520.62 326.499C1520.62 270.807 1483.29 231.334 1431.89 231.334C1380.49 231.334 1343.15 270.77 1343.15 326.499C1343.15 382.894 1380.48 421.665 1431.89 421.665C1483.3 421.665 1520.62 382.844 1520.62 326.499Z" fill="#6D4AFF"/>
<path d="M1655.13 492.109V303.897C1655.13 216.483 1710.77 153.742 1810.06 153.742C1908.64 153.742 1964.28 216.483 1964.28 303.897V492.109H1875.55V310.946C1875.55 262.316 1853.71 231.999 1810.06 231.999C1766.4 231.999 1744.56 262.316 1744.56 310.946V492.109H1655.13Z" fill="#6D4AFF"/>
<path d="M1.42028 363.927V492.096H91.2919V369.473C91.2919 357.543 96.0262 346.101 104.453 337.666C112.88 329.23 124.31 324.491 136.228 324.491H228.377C271.365 324.477 312.588 307.375 342.981 276.943C373.374 246.511 390.45 205.241 390.453 162.209V162.209C390.453 119.17 373.376 77.8933 342.977 47.4579C312.577 17.0225 271.346 -0.079157 228.352 -0.0856934L1.42028 -0.0856934V160.126H91.2919V84.5923H222.295C242.636 84.5923 262.144 92.6793 276.529 107.075C290.915 121.471 299 140.996 299.006 161.358V161.358C299.006 181.724 290.924 201.256 276.538 215.657C262.152 230.058 242.64 238.149 222.295 238.149H127.056C110.554 238.141 94.212 241.389 78.9648 247.707C63.7175 254.025 49.8638 263.29 38.1957 274.971C26.5276 286.653 17.2739 300.522 10.9637 315.785C4.65351 331.049 1.41057 347.408 1.42028 363.927V363.927Z" fill="#6D4AFF"/>
</g>
<defs>
<clipPath id="clip0_6122_148747">
<rect width="1964" height="500" fill="white"/>
</clipPath>
</defs>
</svg>
